# xmcd CD database file
# Copyright (C) 1993-1998 Ti Kan
#
# Track frame offsets:
#	182
#	17337
#	29390
#	49065
#	64737
#	83872
#	97305
#	119155
#	136412
#	150807
#	163192
#	173742
#	195105
#	212650
#
# Disc length: 3046 seconds
#
# Revision: 3
# Processed by: cddbd v1.4b41PL1 Copyright (c) Steve Scherf et al.
# Submitted via: CDmax 1.5
#
DISCID=b40be40e
DTITLE=La Frontera - Siempre hay algo que celebrar
DYEAR=1900
DGENRE=
TTITLE0=Viento salvaje
TTITLE1=Nacido para volar
TTITLE2=Tu vida en un papel
TTITLE3=Pedro el gitano
TTITLE4=El límite
TTITLE5=El Valle de las lágrimas
TTITLE6=El fantasma del desván
TTITLE7=La balada de Toni Martin
TTITLE8=La Posada del Dragón
TTITLE9=Pobre tahur
TTITLE10=Que me quiten lo bailao
TTITLE11=El pantano
TTITLE12=Río profundo
TTITLE13=Siempre hay algo que celebrar
EXTD=
EXTT0=
EXTT1=
EXTT2=
EXTT3=
EXTT4=
EXTT5=
EXTT6=
EXTT7=
EXTT8=
EXTT9=
EXTT10=
EXTT11=
EXTT12=
EXTT13=
PLAYORDER=
